<svg xmlns="http://www.w3.org/2000/svg" xmlns:xlink="http://www.w3.org/1999/xlink" width="500" zoomAndPan="magnify" viewBox="0 0 375 374.999991" height="500" preserveAspectRatio="xMidYMid meet" version="1.0"><defs><clipPath id="cc2f812d07"><path d="M 190.824219 158 L 375 158 L 375 280.996094 L 190.824219 280.996094 Z M 190.824219 158 " clip-rule="nonzero"/></clipPath><clipPath id="74f0bab62b"><path d="M 190.824219 158 L 357 158 L 357 280.996094 L 190.824219 280.996094 Z M 190.824219 158 " clip-rule="nonzero"/></clipPath><clipPath id="ef16110d1b"><path d="M 198 94.246094 L 291 94.246094 L 291 203 L 198 203 Z M 198 94.246094 " clip-rule="nonzero"/></clipPath><clipPath id="d9ee2d6f96"><path d="M 198 94.246094 L 279 94.246094 L 279 192 L 198 192 Z M 198 94.246094 " clip-rule="nonzero"/></clipPath><clipPath id="c2cf254b52"><path d="M 124 232 L 176.25 232 L 176.25 280.996094 L 124 280.996094 Z M 124 232 " clip-rule="nonzero"/></clipPath><clipPath id="61fa8c7f1e"><path d="M 8 94.246094 L 61 94.246094 L 61 143 L 8 143 Z M 8 94.246094 " clip-rule="nonzero"/></clipPath></defs><g clip-path="url(#cc2f812d07)"><path fill="#fd7a6e" d="M 201.316406 158.789062 L 364.828125 158.789062 C 370.597656 158.789062 375.320312 163.503906 375.320312 169.273438 L 375.320312 270.46875 C 375.320312 276.234375 370.597656 280.953125 364.828125 280.953125 L 201.316406 280.953125 C 195.546875 280.953125 190.828125 276.234375 190.828125 270.46875 L 190.828125 169.269531 C 190.828125 163.503906 195.546875 158.789062 201.316406 158.789062 Z M 201.316406 158.789062 " fill-opacity="1" fill-rule="evenodd"/></g><g clip-path="url(#74f0bab62b)"><path fill="#ff948a" d="M 201.316406 158.789062 L 352.167969 158.789062 C 366.804688 197.976562 344.625 247.507812 298.523438 274.121094 C 294.046875 276.699219 289.492188 278.96875 284.902344 280.953125 L 201.316406 280.953125 C 195.546875 280.953125 190.828125 276.234375 190.828125 270.46875 L 190.828125 169.269531 C 190.828125 163.503906 195.546875 158.789062 201.316406 158.789062 Z M 201.316406 158.789062 " fill-opacity="1" fill-rule="evenodd"/></g><path fill="#f2eff2" d="M 206.664062 167.375 L 256.910156 167.375 C 264.898438 167.375 271.769531 169.625 278.21875 174.332031 L 283.074219 177.871094 L 283.074219 279.058594 L 278.21875 275.519531 C 271.765625 270.8125 264.898438 268.574219 256.910156 268.574219 L 206.664062 268.574219 Z M 206.664062 167.375 " fill-opacity="1" fill-rule="evenodd"/><path fill="#ede4ed" d="M 359.480469 167.375 L 309.234375 167.375 C 301.238281 167.375 294.375 169.625 287.925781 174.332031 L 283.074219 177.871094 L 283.074219 279.058594 L 287.925781 275.519531 C 294.378906 270.8125 301.238281 268.574219 309.234375 268.574219 L 359.480469 268.574219 Z M 359.480469 167.375 " fill-opacity="1" fill-rule="evenodd"/><path fill="#f2eff2" d="M 354.75 167.375 L 309.234375 167.375 C 301.238281 167.375 294.375 169.625 287.925781 174.332031 L 283.074219 177.871094 L 283.074219 279.058594 L 287.925781 275.519531 C 293.835938 271.199219 300.089844 268.960938 307.238281 268.617188 C 344.28125 243.199219 362.878906 202.332031 354.75 167.375 Z M 354.75 167.375 " fill-opacity="1" fill-rule="evenodd"/><path fill="#ccc4cc" d="M 343.214844 219.882812 L 299.339844 219.882812 C 297.835938 219.882812 296.617188 218.664062 296.617188 217.160156 C 296.617188 215.65625 297.835938 214.4375 299.339844 214.4375 L 343.214844 214.4375 C 344.71875 214.4375 345.9375 215.65625 345.9375 217.160156 C 345.9375 218.664062 344.71875 219.882812 343.214844 219.882812 Z M 343.214844 219.882812 " fill-opacity="1" fill-rule="nonzero"/><path fill="#ccc4cc" d="M 343.214844 236.074219 L 299.339844 236.074219 C 297.835938 236.074219 296.617188 234.855469 296.617188 233.351562 C 296.617188 231.847656 297.835938 230.628906 299.339844 230.628906 L 343.214844 230.628906 C 344.71875 230.628906 345.9375 231.847656 345.9375 233.351562 C 345.9375 234.855469 344.71875 236.074219 343.214844 236.074219 Z M 343.214844 236.074219 " fill-opacity="1" fill-rule="nonzero"/><path fill="#ccc4cc" d="M 343.214844 252.269531 L 299.339844 252.269531 C 297.835938 252.269531 296.617188 251.050781 296.617188 249.546875 C 296.617188 248.042969 297.835938 246.824219 299.339844 246.824219 L 343.214844 246.824219 C 344.71875 246.824219 345.9375 248.042969 345.9375 249.546875 C 345.9375 251.050781 344.71875 252.269531 343.214844 252.269531 Z M 343.214844 252.269531 " fill-opacity="1" fill-rule="nonzero"/><g clip-path="url(#ef16110d1b)"><path fill="#45dea6" d="M 244.867188 94.289062 C 270.300781 94.289062 290.925781 114.890625 290.925781 140.324219 C 290.925781 162.238281 275.59375 180.582031 255.058594 185.222656 L 250.835938 192.53125 L 244.867188 202.859375 L 238.902344 192.53125 L 234.667969 185.222656 C 214.140625 180.582031 198.8125 162.238281 198.8125 140.324219 C 198.8125 114.890625 219.425781 94.289062 244.867188 94.289062 Z M 244.867188 94.289062 " fill-opacity="1" fill-rule="evenodd"/></g><g clip-path="url(#d9ee2d6f96)"><path fill="#66f2bf" d="M 238.140625 191.21875 L 234.667969 185.222656 C 214.140625 180.582031 198.8125 162.238281 198.8125 140.324219 C 198.8125 115.175781 218.960938 94.75 243.996094 94.296875 C 263.761719 99.480469 278.332031 117.449219 278.332031 138.824219 C 278.332031 160.738281 263 179.082031 242.464844 183.722656 L 238.238281 191.03125 Z M 238.140625 191.21875 " fill-opacity="1" fill-rule="evenodd"/></g><path fill="#ffe177" d="M 235.460938 161.246094 C 235.460938 152.128906 235.503906 150.242188 229.371094 144.347656 C 225.136719 140.277344 222.511719 134.566406 222.511719 128.25 C 222.511719 115.90625 232.515625 105.90625 244.867188 105.90625 C 257.21875 105.90625 267.210938 115.90625 267.210938 128.25 C 267.210938 134.566406 264.585938 140.277344 260.363281 144.347656 C 254.230469 150.242188 254.277344 152.128906 254.277344 161.246094 Z M 235.460938 161.246094 " fill-opacity="1" fill-rule="evenodd"/><path fill="#ffe177" d="M 241.128906 135.96875 L 248.605469 135.96875 L 248.605469 153.398438 L 241.128906 153.398438 Z M 241.128906 135.96875 " fill-opacity="1" fill-rule="nonzero"/><path fill="#feca5d" d="M 251.332031 156.121094 L 238.40625 156.121094 L 238.40625 133.246094 L 251.332031 133.246094 Z M 243.851562 150.671875 L 245.882812 150.671875 L 245.882812 138.691406 L 243.851562 138.691406 Z M 243.851562 150.671875 " fill-opacity="1" fill-rule="nonzero"/><path fill="#ccc4cc" d="M 242.972656 161.246094 L 246.765625 161.246094 C 250.105469 161.246094 252.84375 163.980469 252.84375 167.320312 C 252.84375 170.671875 250.105469 173.40625 246.765625 173.40625 L 242.972656 173.40625 C 239.628906 173.40625 236.894531 170.671875 236.894531 167.320312 C 236.894531 163.980469 239.628906 161.246094 242.972656 161.246094 Z M 242.972656 161.246094 " fill-opacity="1" fill-rule="evenodd"/><path fill="#ccc4cc" d="M 239.597656 152.503906 L 250.140625 152.503906 C 253.777344 152.503906 256.746094 155.46875 256.746094 159.105469 C 256.746094 162.734375 253.777344 165.710938 250.140625 165.710938 L 239.597656 165.710938 C 235.957031 165.710938 232.980469 162.734375 232.980469 159.105469 C 232.980469 155.46875 235.957031 152.503906 239.597656 152.503906 Z M 239.597656 152.503906 " fill-opacity="1" fill-rule="evenodd"/><path fill="#ffe177" d="M 252.699219 135.96875 L 248.605469 135.96875 L 248.605469 131.878906 C 248.605469 129.265625 250.292969 127.117188 253.03125 127.117188 C 255.476562 127.117188 257.453125 129.101562 257.453125 131.535156 C 257.453125 134.269531 255.3125 135.96875 252.699219 135.96875 Z M 252.699219 135.96875 " fill-opacity="1" fill-rule="evenodd"/><path fill="#feca5d" d="M 252.699219 138.691406 L 245.882812 138.691406 L 245.882812 131.878906 C 245.882812 127.609375 248.953125 124.394531 253.03125 124.394531 C 256.96875 124.394531 260.175781 127.597656 260.175781 131.535156 C 260.175781 135.613281 256.960938 138.691406 252.699219 138.691406 Z M 251.332031 133.246094 L 252.699219 133.246094 C 253.175781 133.246094 254.726562 133.121094 254.726562 131.535156 C 254.726562 130.601562 253.964844 129.839844 253.03125 129.839844 C 251.453125 129.839844 251.332031 131.398438 251.332031 131.878906 Z M 251.332031 133.246094 " fill-opacity="1" fill-rule="nonzero"/><path fill="#ffe177" d="M 237.027344 135.96875 L 241.128906 135.96875 L 241.128906 131.878906 C 241.128906 129.265625 239.441406 127.117188 236.695312 127.117188 C 234.257812 127.117188 232.273438 129.101562 232.273438 131.535156 C 232.273438 134.269531 234.421875 135.96875 237.027344 135.96875 Z M 237.027344 135.96875 " fill-opacity="1" fill-rule="evenodd"/><path fill="#feca5d" d="M 243.851562 138.691406 L 237.027344 138.691406 C 232.761719 138.691406 229.546875 135.617188 229.546875 131.535156 C 229.546875 127.597656 232.753906 124.394531 236.695312 124.394531 C 240.777344 124.394531 243.851562 127.613281 243.851562 131.878906 Z M 236.695312 129.839844 C 235.757812 129.839844 234.996094 130.601562 234.996094 131.535156 C 234.996094 133.121094 236.550781 133.246094 237.027344 133.246094 L 238.40625 133.246094 L 238.40625 131.878906 C 238.40625 131.398438 238.28125 129.839844 236.695312 129.839844 Z M 236.695312 129.839844 " fill-opacity="1" fill-rule="nonzero"/><path fill="#ccc4cc" d="M 343.214844 203.6875 L 299.339844 203.6875 C 297.835938 203.6875 296.617188 202.46875 296.617188 200.964844 C 296.617188 199.460938 297.835938 198.242188 299.339844 198.242188 L 343.214844 198.242188 C 344.71875 198.242188 345.9375 199.460938 345.9375 200.964844 C 345.9375 202.46875 344.71875 203.6875 343.214844 203.6875 Z M 343.214844 203.6875 " fill-opacity="1" fill-rule="nonzero"/><path fill="#ccc4cc" d="M 343.214844 187.492188 L 299.339844 187.492188 C 297.835938 187.492188 296.617188 186.273438 296.617188 184.769531 C 296.617188 183.265625 297.835938 182.046875 299.339844 182.046875 L 343.214844 182.046875 C 344.71875 182.046875 345.9375 183.265625 345.9375 184.769531 C 345.9375 186.273438 344.71875 187.492188 343.214844 187.492188 Z M 343.214844 187.492188 " fill-opacity="1" fill-rule="nonzero"/><path fill="#ccc4cc" d="M 266.792969 219.882812 L 222.929688 219.882812 C 221.425781 219.882812 220.207031 218.664062 220.207031 217.160156 C 220.207031 215.65625 221.425781 214.4375 222.929688 214.4375 L 266.792969 214.4375 C 268.296875 214.4375 269.519531 215.65625 269.519531 217.160156 C 269.519531 218.664062 268.296875 219.882812 266.792969 219.882812 Z M 266.792969 219.882812 " fill-opacity="1" fill-rule="nonzero"/><path fill="#ccc4cc" d="M 266.792969 236.074219 L 222.929688 236.074219 C 221.425781 236.074219 220.207031 234.855469 220.207031 233.351562 C 220.207031 231.847656 221.425781 230.628906 222.929688 230.628906 L 266.792969 230.628906 C 268.296875 230.628906 269.519531 231.847656 269.519531 233.351562 C 269.519531 234.855469 268.296875 236.074219 266.792969 236.074219 Z M 266.792969 236.074219 " fill-opacity="1" fill-rule="nonzero"/><path fill="#ccc4cc" d="M 266.792969 252.269531 L 222.929688 252.269531 C 221.425781 252.269531 220.207031 251.050781 220.207031 249.546875 C 220.207031 248.042969 221.425781 246.824219 222.929688 246.824219 L 266.792969 246.824219 C 268.296875 246.824219 269.519531 248.042969 269.519531 249.546875 C 269.519531 251.050781 268.296875 252.269531 266.792969 252.269531 Z M 266.792969 252.269531 " fill-opacity="1" fill-rule="nonzero"/><path fill="#6ac9eb" d="M 334.046875 145.28125 C 346.5 145.28125 356.644531 135.140625 356.644531 122.695312 C 356.644531 110.25 346.5 100.117188 334.046875 100.117188 C 321.597656 100.117188 311.460938 110.261719 311.460938 122.695312 C 311.460938 135.128906 321.609375 145.28125 334.046875 145.28125 Z M 334.046875 145.28125 " fill-opacity="1" fill-rule="evenodd"/><path fill="#8cdbf7" d="M 331.347656 145.117188 C 320.140625 143.785156 311.460938 134.25 311.460938 122.695312 C 311.460938 111.140625 320.140625 101.617188 331.347656 100.285156 C 342.539062 101.617188 351.230469 111.140625 351.230469 122.695312 C 351.230469 134.25 342.539062 143.785156 331.347656 145.117188 Z M 331.347656 145.117188 " fill-opacity="1" fill-rule="evenodd"/><path fill="#ffffff" d="M 330.617188 132.285156 C 330.582031 132.285156 330.546875 132.285156 330.511719 132.285156 C 329.738281 132.253906 329.015625 131.898438 328.523438 131.304688 L 322.015625 123.476562 C 321.054688 122.320312 321.210938 120.601562 322.371094 119.640625 C 323.527344 118.679688 325.242188 118.839844 326.207031 119.996094 L 330.777344 125.496094 L 342.042969 113.929688 C 343.09375 112.851562 344.816406 112.828125 345.894531 113.878906 C 346.972656 114.925781 346.996094 116.648438 345.949219 117.726562 L 332.570312 131.460938 C 332.054688 131.988281 331.351562 132.285156 330.617188 132.285156 Z M 330.617188 132.285156 " fill-opacity="1" fill-rule="nonzero"/><path fill="#799fca" d="M 13.167969 278.808594 C 10.25 278.808594 6.96875 277.710938 4.78125 275.523438 C 0.0390625 270.78125 0.0390625 263.121094 4.78125 258.382812 L 36.511719 226.648438 C 37.605469 225.554688 38.703125 225.554688 39.796875 226.648438 L 53.65625 240.507812 C 54.019531 240.875 54.386719 241.601562 54.386719 241.96875 C 54.386719 242.695312 54.019531 243.0625 53.65625 243.425781 L 21.921875 275.523438 C 19.371094 277.710938 16.453125 278.808594 13.167969 278.808594 Z M 13.167969 278.808594 " fill-opacity="1" fill-rule="evenodd"/><path fill="#647fa0" d="M 56.210938 248.167969 C 55.480469 248.167969 55.113281 248.167969 54.75 247.804688 L 32.5 225.554688 C 32.136719 225.1875 31.769531 224.460938 31.769531 224.09375 C 31.769531 223.367188 32.136719 222.636719 32.5 222.269531 L 39.429688 215.707031 C 40.160156 214.613281 41.621094 214.613281 42.347656 215.707031 L 64.597656 237.957031 C 64.964844 238.320312 65.328125 238.683594 65.328125 239.414062 C 65.328125 239.777344 64.964844 240.507812 64.597656 240.875 L 57.667969 247.804688 C 57.304688 248.167969 56.9375 248.167969 56.210938 248.167969 Z M 56.210938 248.167969 " fill-opacity="1" fill-rule="evenodd"/><path fill="#799fca" d="M 65.328125 242.332031 C 63.867188 242.332031 62.410156 241.96875 61.316406 240.875 L 39.429688 218.625 C 38.335938 217.53125 37.605469 216.070312 37.605469 214.613281 C 37.605469 213.152344 38.335938 212.058594 39.429688 210.964844 L 44.171875 205.859375 C 44.539062 205.492188 45.265625 205.128906 45.996094 205.492188 C 46.726562 205.492188 47.457031 205.859375 47.820312 206.585938 C 50.375 212.058594 54.019531 217.164062 58.398438 221.90625 C 62.773438 226.285156 67.882812 229.929688 73.71875 232.484375 C 74.082031 232.847656 74.8125 233.214844 74.8125 233.941406 C 74.8125 234.671875 74.8125 235.402344 74.082031 236.132812 L 69.339844 240.875 C 68.246094 241.96875 66.785156 242.332031 65.328125 242.332031 Z M 65.328125 242.332031 " fill-opacity="1" fill-rule="evenodd"/><path fill="#ffffff" d="M 97.0625 226.285156 C 85.390625 226.285156 74.445312 221.90625 66.421875 213.882812 C 49.644531 196.738281 49.644531 169.382812 66.421875 152.605469 C 74.445312 144.582031 85.390625 139.839844 97.0625 139.839844 C 108.734375 139.839844 119.3125 144.582031 127.699219 152.605469 C 135.726562 160.628906 140.101562 171.570312 140.101562 183.242188 C 140.101562 194.550781 135.726562 205.492188 127.699219 213.882812 C 119.3125 221.90625 108.734375 226.285156 97.0625 226.285156 Z M 97.0625 226.285156 " fill-opacity="1" fill-rule="evenodd"/><path fill="#46cc8d" d="M 97.0625 226.285156 C 85.390625 226.285156 74.445312 221.90625 66.421875 213.882812 C 65.328125 212.789062 64.234375 211.328125 63.140625 210.234375 C 63.867188 209.503906 63.867188 208.777344 64.234375 208.777344 C 67.152344 204.398438 71.894531 202.210938 77.363281 202.210938 L 88.308594 202.210938 C 88.308594 206.585938 92.320312 210.234375 96.695312 210.234375 C 101.4375 210.234375 105.085938 206.585938 105.085938 202.210938 L 116.027344 202.210938 C 121.5 202.210938 126.605469 204.761719 129.523438 209.140625 C 129.523438 209.140625 129.890625 209.871094 130.253906 210.964844 C 129.523438 211.695312 128.429688 212.789062 127.699219 213.882812 C 119.3125 221.90625 108.734375 226.285156 97.0625 226.285156 Z M 97.0625 226.285156 " fill-opacity="1" fill-rule="evenodd"/><path fill="#f4c89f" d="M 98.519531 201.480469 L 94.507812 201.480469 C 86.117188 201.480469 79.1875 194.550781 79.1875 186.160156 L 79.1875 182.878906 C 79.1875 182.148438 79.554688 181.417969 79.917969 181.054688 L 83.199219 178.5 C 83.199219 178.5 83.566406 178.136719 83.566406 178.136719 L 83.566406 169.019531 C 83.566406 168.652344 83.929688 168.289062 84.296875 168.289062 C 86.117188 168.289062 109.464844 167.195312 109.464844 169.019531 C 109.464844 169.746094 110.191406 175.949219 110.558594 178.5 C 110.558594 178.867188 110.921875 178.867188 110.921875 179.230469 L 113.476562 182.878906 C 113.839844 183.242188 113.839844 183.609375 113.839844 183.972656 L 113.839844 186.160156 C 113.839844 194.550781 106.910156 201.480469 98.519531 201.480469 Z M 98.519531 201.480469 " fill-opacity="1" fill-rule="evenodd"/><path fill="#c97e67" d="M 111.652344 186.160156 C 110.921875 186.160156 110.558594 185.796875 110.191406 185.066406 L 107.640625 181.785156 C 107.273438 181.054688 107.273438 180.691406 107.273438 179.960938 C 107.640625 177.40625 108.003906 173.03125 106.910156 171.570312 C 106.542969 171.570312 106.542969 171.570312 106.542969 171.570312 C 105.085938 171.9375 101.4375 173.03125 96.332031 173.03125 C 93.050781 173.03125 89.765625 172.664062 86.847656 171.570312 C 86.484375 172.300781 85.753906 174.855469 86.847656 179.597656 C 86.847656 180.324219 86.484375 181.054688 86.117188 181.785156 L 82.472656 184.335938 C 82.105469 184.703125 81.378906 185.066406 81.011719 184.703125 C 80.28125 184.703125 79.554688 184.335938 79.554688 183.609375 C 79.1875 183.242188 74.8125 173.394531 78.460938 165.007812 C 79.917969 160.992188 83.566406 157.710938 88.308594 155.886719 C 89.765625 155.15625 94.871094 151.875 100.34375 151.875 C 104.722656 151.875 108.367188 154.0625 110.191406 158.441406 C 112.746094 160.265625 121.136719 168.652344 113.839844 184.703125 C 113.476562 185.433594 112.746094 185.796875 112.015625 186.160156 C 112.015625 186.160156 111.652344 186.160156 111.652344 186.160156 Z M 111.652344 186.160156 " fill-opacity="1" fill-rule="evenodd"/><path fill="#f4c89f" d="M 96.695312 210.234375 C 101.4375 210.234375 105.085938 206.585938 105.085938 202.210938 L 104.722656 200.386719 C 102.898438 201.117188 100.707031 201.480469 98.519531 201.480469 L 94.507812 201.480469 C 92.683594 201.480469 90.496094 201.117188 88.671875 200.386719 L 88.308594 202.210938 C 88.308594 206.585938 92.320312 210.234375 96.695312 210.234375 Z M 96.695312 210.234375 " fill-opacity="1" fill-rule="evenodd"/><path fill="#f5b48f" d="M 105.085938 201.84375 L 104.722656 200.386719 C 102.898438 201.117188 100.707031 201.480469 98.519531 201.480469 L 94.507812 201.480469 C 92.683594 201.480469 90.496094 201.117188 88.671875 200.386719 L 88.308594 201.84375 C 90.496094 202.574219 92.320312 202.941406 94.507812 202.941406 L 98.519531 202.941406 C 100.707031 202.941406 102.898438 202.574219 105.085938 201.84375 Z M 105.085938 201.84375 " fill-opacity="1" fill-rule="evenodd"/><path fill="#647fa0" d="M 97.0625 241.96875 C 81.378906 241.96875 66.421875 236.132812 55.480469 224.824219 C 44.171875 213.882812 37.972656 198.925781 37.972656 183.242188 C 37.972656 167.558594 44.171875 152.605469 55.480469 141.296875 C 66.421875 130.355469 81.378906 124.15625 97.0625 124.15625 C 112.746094 124.15625 127.699219 130.355469 138.644531 141.296875 C 161.621094 164.640625 161.621094 201.84375 138.644531 224.824219 C 127.699219 236.132812 112.746094 241.96875 97.0625 241.96875 Z M 97.0625 224.824219 C 85.753906 224.824219 75.542969 220.449219 67.515625 212.789062 C 51.101562 196.375 51.101562 170.113281 67.515625 153.699219 C 75.542969 145.675781 85.753906 141.296875 97.0625 141.296875 C 108.003906 141.296875 118.582031 145.675781 126.605469 153.699219 C 134.265625 161.722656 138.644531 171.9375 138.644531 183.242188 C 138.644531 194.1875 134.265625 204.761719 126.605469 212.789062 C 118.582031 220.449219 108.003906 224.824219 97.0625 224.824219 Z M 97.0625 224.824219 " fill-opacity="1" fill-rule="evenodd"/><g clip-path="url(#c2cf254b52)"><path fill="#fed2a4" d="M 171.835938 280.996094 L 128.066406 280.996094 C 125.875 280.996094 124.054688 279.171875 124.054688 276.617188 L 124.054688 247.804688 C 124.054688 245.613281 125.875 243.792969 128.066406 243.792969 L 136.820312 243.792969 L 136.820312 234.671875 C 136.453125 233.578125 137.183594 232.847656 137.914062 232.484375 C 138.644531 232.121094 139.371094 232.484375 140.101562 232.847656 L 154.328125 243.792969 L 171.835938 243.792969 C 174.023438 243.792969 176.210938 245.613281 176.210938 247.804688 L 176.210938 276.617188 C 176.210938 279.171875 174.023438 280.996094 171.835938 280.996094 Z M 171.835938 280.996094 " fill-opacity="1" fill-rule="evenodd"/></g><g clip-path="url(#61fa8c7f1e)"><path fill="#fed2a4" d="M 45.265625 142.757812 C 44.902344 142.757812 44.539062 142.757812 44.171875 142.390625 L 29.949219 131.449219 L 12.4375 131.449219 C 9.886719 131.449219 8.0625 129.625 8.0625 127.4375 L 8.0625 98.621094 C 8.0625 96.070312 9.886719 94.246094 12.4375 94.246094 L 56.210938 94.246094 C 58.398438 94.246094 60.222656 96.070312 60.222656 98.621094 L 60.222656 127.4375 C 60.222656 129.625 58.398438 131.449219 56.210938 131.449219 L 47.457031 131.449219 L 47.457031 140.566406 C 47.457031 141.664062 47.089844 142.390625 46.359375 142.757812 C 45.996094 142.757812 45.632812 142.757812 45.265625 142.757812 Z M 45.265625 142.757812 " fill-opacity="1" fill-rule="evenodd"/></g><path fill="#799fca" d="M 97.0625 229.203125 C 84.660156 229.203125 73.351562 224.460938 64.597656 215.707031 C 46.726562 197.832031 46.726562 168.652344 64.597656 150.78125 C 73.351562 142.027344 84.660156 137.285156 97.0625 137.285156 C 109.097656 137.285156 120.769531 142.027344 129.523438 150.78125 C 138.277344 159.535156 143.019531 170.84375 143.019531 183.242188 C 143.019531 195.28125 138.277344 206.953125 129.523438 215.707031 C 120.769531 224.460938 109.097656 229.203125 97.0625 229.203125 Z M 97.0625 224.824219 C 85.753906 224.824219 75.542969 220.449219 67.515625 212.789062 C 51.101562 196.375 51.101562 170.113281 67.515625 153.699219 C 75.542969 145.675781 85.753906 141.296875 97.0625 141.296875 C 108.003906 141.296875 118.582031 145.675781 126.605469 153.699219 C 134.265625 161.722656 138.644531 171.9375 138.644531 183.242188 C 138.644531 194.1875 134.265625 204.761719 126.605469 212.789062 C 118.582031 220.449219 108.003906 224.824219 97.0625 224.824219 Z M 97.0625 224.824219 " fill-opacity="1" fill-rule="evenodd"/><path fill="#feaa85" d="M 166.730469 272.242188 L 163.082031 272.242188 C 161.621094 272.242188 160.894531 271.511719 160.894531 270.054688 C 160.894531 268.957031 161.621094 267.863281 163.082031 267.863281 L 166.730469 267.863281 C 167.824219 267.863281 168.917969 268.957031 168.917969 270.054688 C 168.917969 271.511719 167.824219 272.242188 166.730469 272.242188 Z M 155.785156 272.242188 L 133.171875 272.242188 C 132.078125 272.242188 130.984375 271.511719 130.984375 270.054688 C 130.984375 268.957031 132.078125 267.863281 133.171875 267.863281 L 155.785156 267.863281 C 156.878906 267.863281 157.976562 268.957031 157.976562 270.054688 C 157.976562 271.511719 156.878906 272.242188 155.785156 272.242188 Z M 155.785156 272.242188 " fill-opacity="1" fill-rule="evenodd"/><path fill="#feaa85" d="M 166.730469 264.582031 L 144.113281 264.582031 C 143.019531 264.582031 141.925781 263.488281 141.925781 262.394531 C 141.925781 261.300781 143.019531 260.203125 144.113281 260.203125 L 166.730469 260.203125 C 167.824219 260.203125 168.917969 261.300781 168.917969 262.394531 C 168.917969 263.488281 167.824219 264.582031 166.730469 264.582031 Z M 137.183594 264.582031 L 133.171875 264.582031 C 132.078125 264.582031 130.984375 263.488281 130.984375 262.394531 C 130.984375 261.300781 132.078125 260.203125 133.171875 260.203125 L 137.183594 260.203125 C 138.277344 260.203125 139.371094 261.300781 139.371094 262.394531 C 139.371094 263.488281 138.277344 264.582031 137.183594 264.582031 Z M 137.183594 264.582031 " fill-opacity="1" fill-rule="evenodd"/><path fill="#feaa85" d="M 166.730469 256.558594 L 163.082031 256.558594 C 161.621094 256.558594 160.894531 255.828125 160.894531 254.367188 C 160.894531 253.273438 161.621094 252.179688 163.082031 252.179688 L 166.730469 252.179688 C 167.824219 252.179688 168.917969 253.273438 168.917969 254.367188 C 168.917969 255.828125 167.824219 256.558594 166.730469 256.558594 Z M 155.785156 256.558594 L 133.171875 256.558594 C 132.078125 256.558594 130.984375 255.828125 130.984375 254.367188 C 130.984375 253.273438 132.078125 252.179688 133.171875 252.179688 L 155.785156 252.179688 C 156.878906 252.179688 157.976562 253.273438 157.976562 254.367188 C 157.976562 255.828125 156.878906 256.558594 155.785156 256.558594 Z M 155.785156 256.558594 " fill-opacity="1" fill-rule="evenodd"/><path fill="#feaa85" d="M 51.101562 107.375 L 28.488281 107.375 C 27.03125 107.375 26.300781 106.28125 26.300781 105.1875 C 26.300781 103.730469 27.03125 103 28.488281 103 L 51.101562 103 C 52.195312 103 53.292969 103.730469 53.292969 105.1875 C 53.292969 106.28125 52.195312 107.375 51.101562 107.375 Z M 21.191406 107.375 L 17.546875 107.375 C 16.453125 107.375 15.355469 106.28125 15.355469 105.1875 C 15.355469 103.730469 16.453125 103 17.546875 103 L 21.191406 103 C 22.652344 103 23.382812 103.730469 23.382812 105.1875 C 23.382812 106.28125 22.652344 107.375 21.191406 107.375 Z M 21.191406 107.375 " fill-opacity="1" fill-rule="evenodd"/><path fill="#feaa85" d="M 51.101562 115.035156 L 47.089844 115.035156 C 45.996094 115.035156 44.902344 113.941406 44.902344 112.847656 C 44.902344 111.753906 45.996094 110.660156 47.089844 110.660156 L 51.101562 110.660156 C 52.195312 110.660156 53.292969 111.753906 53.292969 112.847656 C 53.292969 113.941406 52.195312 115.035156 51.101562 115.035156 Z M 40.160156 115.035156 L 17.546875 115.035156 C 16.453125 115.035156 15.355469 113.941406 15.355469 112.847656 C 15.355469 111.753906 16.453125 110.660156 17.546875 110.660156 L 40.160156 110.660156 C 41.253906 110.660156 42.347656 111.753906 42.347656 112.847656 C 42.347656 113.941406 41.253906 115.035156 40.160156 115.035156 Z M 40.160156 115.035156 " fill-opacity="1" fill-rule="evenodd"/><path fill="#feaa85" d="M 51.101562 123.058594 L 28.488281 123.058594 C 27.03125 123.058594 26.300781 121.964844 26.300781 120.871094 C 26.300781 119.414062 27.03125 118.683594 28.488281 118.683594 L 51.101562 118.683594 C 52.195312 118.683594 53.292969 119.414062 53.292969 120.871094 C 53.292969 121.964844 52.195312 123.058594 51.101562 123.058594 Z M 21.191406 123.058594 L 17.546875 123.058594 C 16.453125 123.058594 15.355469 121.964844 15.355469 120.871094 C 15.355469 119.414062 16.453125 118.683594 17.546875 118.683594 L 21.191406 118.683594 C 22.652344 118.683594 23.382812 119.414062 23.382812 120.871094 C 23.382812 121.964844 22.652344 123.058594 21.191406 123.058594 Z M 21.191406 123.058594 " fill-opacity="1" fill-rule="evenodd"/></svg>