<svg xmlns="http://www.w3.org/2000/svg" xmlns:xlink="http://www.w3.org/1999/xlink" width="500" zoomAndPan="magnify" viewBox="0 0 375 374.999991" height="500" preserveAspectRatio="xMidYMid meet" version="1.0"><defs><clipPath id="e17a5e92c3"><path d="M 154 84.472656 L 221 84.472656 L 221 133 L 154 133 Z M 154 84.472656 " clip-rule="nonzero"/></clipPath><clipPath id="658f5972b8"><path d="M 131 212 L 253 212 L 253 290.722656 L 131 290.722656 Z M 131 212 " clip-rule="nonzero"/></clipPath><clipPath id="b630422e83"><path d="M 0 276 L 375 276 L 375 290.722656 L 0 290.722656 Z M 0 276 " clip-rule="nonzero"/></clipPath></defs><path fill="#f1f1f1" d="M 57.296875 260.710938 C 48.976562 266.917969 46.617188 277.84375 46.617188 277.84375 C 46.617188 277.84375 57.75 278.703125 66.074219 272.492188 C 74.394531 266.28125 76.753906 255.359375 76.753906 255.359375 C 76.753906 255.359375 65.621094 254.5 57.296875 260.710938 Z M 57.296875 260.710938 " fill-opacity="1" fill-rule="nonzero"/><path fill="#f1f1f1" d="M 60.765625 263.625 C 56.765625 273.210938 46.746094 278.152344 46.746094 278.152344 C 46.746094 278.152344 43.214844 267.546875 47.214844 257.960938 C 51.214844 248.375 61.230469 243.433594 61.230469 243.433594 C 61.230469 243.433594 64.761719 254.039062 60.765625 263.625 Z M 60.765625 263.625 " fill-opacity="1" fill-rule="nonzero"/><path fill="#cacaca" d="M 300.1875 235.910156 C 299.300781 229.929688 299.066406 223.925781 299.492188 217.894531 L 300.1875 207.945312 C 296.347656 215.589844 297.214844 225.652344 300.1875 235.910156 Z M 300.1875 235.910156 " fill-opacity="1" fill-rule="nonzero"/><path fill="#cacaca" d="M 303.179688 237.574219 C 302.753906 234.007812 302.640625 230.433594 302.84375 226.851562 L 303.179688 220.929688 C 301.332031 225.480469 301.75 231.46875 303.179688 237.574219 Z M 303.179688 237.574219 " fill-opacity="1" fill-rule="nonzero"/><path fill="#f2f2f2" d="M 316.484375 244.898438 L 316.484375 248.226562 C 316.484375 248.503906 316.386719 248.738281 316.191406 248.933594 C 315.996094 249.128906 315.761719 249.226562 315.488281 249.226562 L 313.824219 249.226562 C 313.734375 249.226562 313.65625 249.257812 313.589844 249.324219 C 313.523438 249.390625 313.492188 249.46875 313.492188 249.558594 L 313.492188 276.859375 C 313.492188 277.132812 313.394531 277.367188 313.199219 277.5625 C 313.003906 277.757812 312.769531 277.855469 312.496094 277.855469 L 292.207031 277.855469 C 292.074219 277.855469 291.945312 277.832031 291.824219 277.78125 C 291.703125 277.730469 291.59375 277.660156 291.5 277.566406 C 291.40625 277.472656 291.335938 277.363281 291.285156 277.242188 C 291.234375 277.117188 291.207031 276.992188 291.207031 276.859375 L 291.207031 249.558594 C 291.207031 249.46875 291.175781 249.390625 291.109375 249.324219 C 291.046875 249.257812 290.96875 249.226562 290.875 249.226562 L 288.878906 249.226562 C 288.746094 249.226562 288.621094 249.199219 288.5 249.148438 C 288.375 249.101562 288.269531 249.027344 288.175781 248.933594 C 288.082031 248.839844 288.007812 248.730469 287.957031 248.609375 C 287.90625 248.488281 287.882812 248.359375 287.882812 248.226562 L 287.882812 244.898438 C 287.882812 244.765625 287.90625 244.640625 287.957031 244.515625 C 288.007812 244.394531 288.082031 244.285156 288.175781 244.191406 C 288.269531 244.097656 288.375 244.027344 288.5 243.976562 C 288.621094 243.925781 288.746094 243.898438 288.878906 243.898438 L 315.488281 243.898438 C 315.761719 243.902344 315.996094 244 316.191406 244.191406 C 316.386719 244.386719 316.484375 244.625 316.484375 244.898438 Z M 316.484375 244.898438 " fill-opacity="1" fill-rule="nonzero"/><path fill="#e6e6e6" d="M 291.238281 249.925781 L 313.523438 249.925781 L 313.523438 250.925781 L 291.238281 250.925781 Z M 291.238281 249.925781 " fill-opacity="1" fill-rule="nonzero"/><path fill="#e6e6e6" d="M 313.492188 264.621094 C 306.035156 267.710938 298.496094 267.746094 290.875 264.621094 L 290.875 257.585938 C 294.542969 256.351562 298.3125 255.734375 302.183594 255.734375 C 306.054688 255.734375 309.824219 256.351562 313.492188 257.585938 Z M 313.492188 264.621094 " fill-opacity="1" fill-rule="nonzero"/><path fill="#feb8b8" d="M 218.730469 126.871094 C 218.730469 127.859375 218.679688 128.84375 218.585938 129.828125 C 218.488281 130.808594 218.34375 131.785156 218.148438 132.753906 C 217.957031 133.726562 217.71875 134.683594 217.429688 135.628906 C 217.144531 136.574219 216.8125 137.503906 216.433594 138.414062 C 216.058594 139.328125 215.636719 140.21875 215.171875 141.089844 C 214.703125 141.964844 214.199219 142.808594 213.648438 143.632812 C 213.101562 144.453125 212.515625 145.246094 211.886719 146.007812 C 211.261719 146.773438 210.597656 147.503906 209.902344 148.203125 C 209.203125 148.902344 208.472656 149.5625 207.710938 150.191406 C 206.945312 150.816406 206.15625 151.40625 205.332031 151.953125 C 204.511719 152.503906 203.667969 153.011719 202.796875 153.476562 C 201.925781 153.941406 201.035156 154.363281 200.125 154.742188 C 199.210938 155.121094 198.28125 155.453125 197.339844 155.738281 C 196.394531 156.027344 195.4375 156.265625 194.46875 156.460938 C 193.5 156.652344 192.527344 156.796875 191.542969 156.894531 C 190.5625 156.992188 189.574219 157.039062 188.589844 157.039062 C 187.601562 157.039062 186.617188 156.992188 185.632812 156.894531 C 184.652344 156.796875 183.675781 156.652344 182.707031 156.460938 C 181.742188 156.265625 180.785156 156.027344 179.839844 155.738281 C 178.894531 155.453125 177.964844 155.121094 177.054688 154.742188 C 176.144531 154.363281 175.25 153.941406 174.378906 153.476562 C 173.511719 153.011719 172.664062 152.503906 171.84375 151.953125 C 171.023438 151.40625 170.230469 150.816406 169.46875 150.191406 C 168.703125 149.5625 167.972656 148.902344 167.277344 148.203125 C 166.578125 147.503906 165.917969 146.773438 165.289062 146.007812 C 164.664062 145.246094 164.078125 144.453125 163.527344 143.632812 C 162.980469 142.808594 162.472656 141.964844 162.007812 141.089844 C 161.542969 140.21875 161.121094 139.328125 160.742188 138.414062 C 160.363281 137.503906 160.03125 136.574219 159.746094 135.628906 C 159.460938 134.683594 159.21875 133.726562 159.027344 132.753906 C 158.835938 131.785156 158.691406 130.808594 158.59375 129.828125 C 158.496094 128.84375 158.449219 127.859375 158.449219 126.871094 C 158.449219 125.882812 158.496094 124.894531 158.59375 123.914062 C 158.691406 122.929688 158.835938 121.953125 159.027344 120.984375 C 159.21875 120.015625 159.460938 119.058594 159.746094 118.113281 C 160.03125 117.167969 160.363281 116.238281 160.742188 115.324219 C 161.121094 114.410156 161.542969 113.519531 162.007812 112.648438 C 162.472656 111.777344 162.980469 110.929688 163.527344 110.109375 C 164.078125 109.285156 164.664062 108.496094 165.289062 107.730469 C 165.917969 106.964844 166.578125 106.234375 167.277344 105.535156 C 167.972656 104.839844 168.703125 104.175781 169.46875 103.546875 C 170.230469 102.921875 171.023438 102.332031 171.84375 101.785156 C 172.664062 101.234375 173.511719 100.730469 174.378906 100.261719 C 175.25 99.796875 176.144531 99.375 177.054688 98.996094 C 177.964844 98.617188 178.894531 98.285156 179.839844 98 C 180.785156 97.710938 181.742188 97.472656 182.707031 97.28125 C 183.675781 97.085938 184.652344 96.941406 185.632812 96.84375 C 186.617188 96.75 187.601562 96.699219 188.589844 96.699219 C 189.574219 96.699219 190.5625 96.75 191.542969 96.84375 C 192.527344 96.941406 193.5 97.085938 194.46875 97.28125 C 195.4375 97.472656 196.394531 97.710938 197.339844 98 C 198.28125 98.285156 199.210938 98.617188 200.125 98.996094 C 201.035156 99.375 201.925781 99.796875 202.796875 100.261719 C 203.667969 100.730469 204.511719 101.234375 205.332031 101.785156 C 206.15625 102.332031 206.945312 102.921875 207.710938 103.546875 C 208.472656 104.175781 209.203125 104.839844 209.902344 105.535156 C 210.597656 106.234375 211.261719 106.964844 211.886719 107.730469 C 212.515625 108.496094 213.101562 109.285156 213.648438 110.109375 C 214.199219 110.929688 214.703125 111.777344 215.171875 112.648438 C 215.636719 113.519531 216.058594 114.410156 216.433594 115.324219 C 216.8125 116.238281 217.144531 117.167969 217.429688 118.113281 C 217.71875 119.058594 217.957031 120.015625 218.148438 120.984375 C 218.34375 121.953125 218.488281 122.929688 218.585938 123.914062 C 218.679688 124.894531 218.730469 125.882812 218.730469 126.871094 Z M 218.730469 126.871094 " fill-opacity="1" fill-rule="nonzero"/><g clip-path="url(#e17a5e92c3)"><path fill="#2f2e41" d="M 216.738281 100.84375 C 215.621094 99.027344 214.351562 97.328125 212.921875 95.746094 C 211.492188 94.164062 209.933594 92.726562 208.238281 91.429688 C 206.546875 90.136719 204.75 89.003906 202.851562 88.039062 C 200.953125 87.074219 198.980469 86.292969 196.9375 85.691406 L 193.238281 88.390625 L 193.238281 84.882812 C 191.253906 84.578125 189.257812 84.460938 187.25 84.535156 L 184.058594 87.425781 L 184.058594 84.773438 C 181.695312 85.066406 179.386719 85.601562 177.136719 86.375 C 174.882812 87.148438 172.730469 88.140625 170.6875 89.359375 C 168.640625 90.578125 166.738281 91.996094 164.984375 93.609375 C 163.230469 95.222656 161.660156 96.996094 160.273438 98.933594 C 153.34375 108.9375 152.171875 122.855469 158.992188 132.941406 C 160.863281 127.183594 163.132812 121.78125 165.007812 116.023438 C 166.484375 116.222656 167.960938 116.230469 169.441406 116.042969 L 171.71875 110.726562 L 172.355469 115.820312 C 179.414062 115.203125 189.882812 113.851562 196.574219 112.613281 L 195.925781 108.707031 L 199.816406 111.953125 C 201.867188 111.480469 203.085938 111.050781 202.984375 110.722656 C 207.960938 118.753906 214.050781 123.886719 219.027344 131.914062 C 220.917969 120.589844 223.09375 111.175781 216.738281 100.84375 Z M 216.738281 100.84375 " fill-opacity="1" fill-rule="nonzero"/></g><path fill="#20bf00" d="M 253.410156 204.453125 C 252.375 198.210938 251.304688 191.847656 248.410156 186.226562 C 246.503906 182.542969 243.480469 179.035156 239.40625 178.304688 C 238.597656 178.234375 237.816406 178.050781 237.058594 177.761719 C 235.867188 177.1875 219.816406 168.015625 217.269531 166.417969 C 215.078125 165.046875 211.621094 162.507812 209.878906 162.507812 C 208.125 162.472656 201.398438 164.039062 175.152344 161.984375 C 175.152344 161.984375 167.941406 164.828125 162.363281 168.277344 C 162.277344 168.222656 135.121094 182.820312 134.101562 182.78125 C 132.167969 182.699219 130.375 183.9375 129.265625 185.496094 C 128.160156 187.058594 127.640625 188.988281 127.09375 190.855469 C 133.027344 204.074219 138.453125 217.316406 144.386719 230.535156 C 144.667969 231.042969 144.8125 231.585938 144.816406 232.164062 C 144.695312 232.765625 144.449219 233.308594 144.078125 233.792969 C 141.167969 238.472656 141.261719 244.355469 141.578125 249.851562 C 141.894531 255.347656 142.289062 261.15625 139.835938 266.082031 C 139.167969 267.4375 138.300781 268.675781 137.664062 270.027344 C 136.175781 273.089844 135.640625 282.890625 136.507812 286.183594 L 245.320312 289.304688 C 242.984375 282.867188 253.410156 204.453125 253.410156 204.453125 Z M 253.410156 204.453125 " fill-opacity="1" fill-rule="nonzero"/><path fill="#fbbebe" d="M 117.691406 231.121094 C 117.472656 232.699219 117.449219 234.28125 117.625 235.867188 L 119.183594 258.285156 C 119.332031 260.398438 119.476562 262.503906 119.671875 264.613281 C 120.046875 268.703125 120.605469 272.761719 121.300781 276.8125 C 121.308594 277.101562 121.371094 277.375 121.488281 277.640625 C 121.605469 277.902344 121.765625 278.132812 121.976562 278.332031 C 122.183594 278.527344 122.421875 278.679688 122.691406 278.78125 C 122.960938 278.886719 123.238281 278.933594 123.523438 278.925781 C 130.390625 280.382812 137.484375 280.324219 144.488281 279.925781 C 155.179688 279.328125 182.535156 278.199219 184.207031 276.027344 C 185.875 273.855469 184.902344 270.339844 182.722656 268.582031 C 180.542969 266.824219 144.449219 262.539062 144.449219 262.539062 C 144.800781 259.742188 145.863281 257.109375 146.875 254.453125 C 148.6875 249.742188 150.378906 244.875 150.414062 239.828125 C 150.445312 234.78125 148.546875 229.476562 144.414062 226.585938 C 141.019531 224.210938 136.644531 223.769531 132.503906 223.867188 C 129.492188 223.953125 124.289062 223.234375 121.535156 224.410156 C 119.359375 225.371094 118.097656 228.988281 117.691406 231.121094 Z M 117.691406 231.121094 " fill-opacity="1" fill-rule="nonzero"/><path fill="#20bf00" d="M 126.78125 191.257812 C 126.246094 191.816406 125.847656 192.457031 125.578125 193.183594 C 121.15625 203.160156 118.605469 213.59375 117.925781 224.484375 C 117.9375 225.019531 117.820312 225.527344 117.574219 226 C 117.332031 226.3125 117.066406 226.601562 116.773438 226.863281 C 116.519531 227.167969 116.332031 227.511719 116.210938 227.890625 C 116.089844 228.269531 116.046875 228.65625 116.078125 229.050781 C 116.113281 229.449219 116.222656 229.824219 116.402344 230.175781 C 116.585938 230.53125 116.828125 230.835938 117.132812 231.089844 C 117.183594 231.132812 117.234375 231.171875 117.285156 231.210938 C 118.179688 229.523438 120.324219 228.972656 122.230469 228.824219 C 131.351562 228.105469 140.261719 232.351562 149.414062 232.03125 C 148.765625 229.796875 147.839844 227.652344 147.3125 225.394531 C 144.984375 215.359375 150.792969 204.4375 147.230469 194.769531 C 146.519531 192.835938 145.332031 190.9375 143.460938 190.089844 C 142.679688 189.773438 141.875 189.5625 141.042969 189.449219 C 138.730469 189.03125 134.128906 187.242188 131.894531 187.960938 C 131.070312 188.226562 130.742188 189.003906 130.058594 189.472656 C 129.019531 190.136719 127.644531 190.382812 126.78125 191.257812 Z M 126.78125 191.257812 " fill-opacity="1" fill-rule="nonzero"/><path fill="#fbbebe" d="M 253.476562 224.410156 C 250.726562 223.234375 245.519531 223.953125 242.507812 223.867188 C 238.367188 223.769531 233.996094 224.210938 230.597656 226.585938 C 226.46875 229.476562 224.566406 234.78125 224.601562 239.828125 C 224.632812 244.875 226.324219 249.742188 228.136719 254.453125 C 229.148438 257.109375 230.210938 259.742188 230.566406 262.539062 C 230.566406 262.539062 194.46875 266.824219 192.289062 268.582031 C 190.109375 270.339844 189.136719 273.855469 190.808594 276.027344 C 192.480469 278.199219 244.621094 280.382812 251.488281 278.925781 C 251.773438 278.933594 252.054688 278.886719 252.320312 278.78125 C 252.589844 278.679688 252.828125 278.527344 253.035156 278.332031 C 253.246094 278.132812 253.410156 277.902344 253.527344 277.640625 C 253.640625 277.375 253.703125 277.101562 253.710938 276.8125 C 254.40625 272.761719 254.964844 268.703125 255.339844 264.613281 C 255.539062 262.503906 255.683594 260.398438 255.828125 258.285156 L 257.386719 235.867188 C 257.5625 234.28125 257.539062 232.699219 257.324219 231.121094 C 256.917969 228.988281 255.652344 225.371094 253.476562 224.410156 Z M 253.476562 224.410156 " fill-opacity="1" fill-rule="nonzero"/><path fill="#20bf00" d="M 244.953125 189.472656 C 244.269531 189.003906 243.945312 188.226562 243.117188 187.960938 C 240.882812 187.242188 236.28125 189.03125 233.96875 189.449219 C 233.136719 189.5625 232.332031 189.773438 231.554688 190.089844 C 229.679688 190.9375 228.492188 192.835938 227.78125 194.769531 C 224.222656 204.4375 230.027344 215.359375 227.699219 225.394531 C 227.175781 227.652344 226.246094 229.796875 225.601562 232.03125 C 234.75 232.351562 243.660156 228.105469 252.785156 228.824219 C 254.6875 228.972656 256.832031 229.523438 257.726562 231.210938 C 257.78125 231.171875 257.832031 231.132812 257.878906 231.089844 C 258.183594 230.835938 258.425781 230.53125 258.609375 230.175781 C 258.792969 229.824219 258.898438 229.449219 258.933594 229.050781 C 258.96875 228.65625 258.921875 228.269531 258.804688 227.890625 C 258.683594 227.511719 258.496094 227.167969 258.238281 226.863281 C 257.945312 226.601562 257.679688 226.3125 257.441406 226 C 257.191406 225.527344 257.074219 225.019531 257.085938 224.484375 C 256.40625 213.59375 253.859375 203.160156 249.4375 193.183594 C 249.167969 192.457031 248.765625 191.816406 248.230469 191.257812 C 247.371094 190.382812 245.992188 190.136719 244.953125 189.472656 Z M 244.953125 189.472656 " fill-opacity="1" fill-rule="nonzero"/><path fill="#fbbebe" d="M 187.796875 271.855469 C 187.796875 272.390625 187.746094 272.917969 187.640625 273.445312 C 187.535156 273.96875 187.382812 274.476562 187.179688 274.972656 C 186.972656 275.464844 186.722656 275.933594 186.425781 276.378906 C 186.128906 276.824219 185.792969 277.234375 185.414062 277.613281 C 185.035156 277.992188 184.625 278.328125 184.183594 278.625 C 183.738281 278.921875 183.269531 279.171875 182.777344 279.378906 C 182.28125 279.582031 181.773438 279.738281 181.25 279.839844 C 180.726562 279.945312 180.195312 279.996094 179.664062 279.996094 C 179.128906 279.996094 178.597656 279.945312 178.074219 279.839844 C 177.550781 279.738281 177.042969 279.582031 176.550781 279.378906 C 176.054688 279.171875 175.585938 278.921875 175.144531 278.625 C 174.699219 278.328125 174.289062 277.992188 173.910156 277.613281 C 173.53125 277.234375 173.195312 276.824219 172.898438 276.378906 C 172.601562 275.933594 172.351562 275.464844 172.148438 274.972656 C 171.941406 274.476562 171.789062 273.96875 171.683594 273.445312 C 171.578125 272.917969 171.527344 272.390625 171.527344 271.855469 C 171.527344 271.320312 171.578125 270.789062 171.683594 270.265625 C 171.789062 269.742188 171.941406 269.234375 172.148438 268.738281 C 172.351562 268.246094 172.601562 267.777344 172.898438 267.332031 C 173.195312 266.886719 173.53125 266.476562 173.910156 266.097656 C 174.289062 265.71875 174.699219 265.382812 175.144531 265.085938 C 175.585938 264.789062 176.054688 264.535156 176.550781 264.332031 C 177.042969 264.128906 177.550781 263.972656 178.074219 263.867188 C 178.597656 263.765625 179.128906 263.710938 179.664062 263.710938 C 180.195312 263.710938 180.726562 263.765625 181.25 263.867188 C 181.773438 263.972656 182.28125 264.128906 182.777344 264.332031 C 183.269531 264.535156 183.738281 264.789062 184.183594 265.085938 C 184.625 265.382812 185.035156 265.71875 185.414062 266.097656 C 185.792969 266.476562 186.128906 266.886719 186.425781 267.332031 C 186.722656 267.777344 186.972656 268.246094 187.179688 268.738281 C 187.382812 269.234375 187.535156 269.742188 187.640625 270.265625 C 187.746094 270.789062 187.796875 271.320312 187.796875 271.855469 Z M 187.796875 271.855469 " fill-opacity="1" fill-rule="nonzero"/><path fill="#fbbebe" d="M 205.808594 271.855469 C 205.808594 272.390625 205.757812 272.917969 205.652344 273.445312 C 205.550781 273.96875 205.394531 274.476562 205.191406 274.972656 C 204.988281 275.464844 204.734375 275.933594 204.4375 276.378906 C 204.140625 276.824219 203.804688 277.234375 203.425781 277.613281 C 203.050781 277.992188 202.640625 278.328125 202.195312 278.625 C 201.75 278.921875 201.28125 279.171875 200.789062 279.378906 C 200.292969 279.582031 199.785156 279.738281 199.261719 279.839844 C 198.738281 279.945312 198.210938 279.996094 197.675781 279.996094 C 197.140625 279.996094 196.613281 279.945312 196.089844 279.839844 C 195.5625 279.738281 195.054688 279.582031 194.5625 279.378906 C 194.070312 279.171875 193.597656 278.921875 193.15625 278.625 C 192.710938 278.328125 192.300781 277.992188 191.921875 277.613281 C 191.546875 277.234375 191.207031 276.824219 190.910156 276.378906 C 190.613281 275.933594 190.363281 275.464844 190.160156 274.972656 C 189.953125 274.476562 189.800781 273.96875 189.695312 273.445312 C 189.59375 272.917969 189.539062 272.390625 189.539062 271.855469 C 189.539062 271.320312 189.59375 270.789062 189.695312 270.265625 C 189.800781 269.742188 189.953125 269.234375 190.160156 268.738281 C 190.363281 268.246094 190.613281 267.777344 190.910156 267.332031 C 191.207031 266.886719 191.546875 266.476562 191.921875 266.097656 C 192.300781 265.71875 192.710938 265.382812 193.15625 265.085938 C 193.597656 264.789062 194.070312 264.535156 194.5625 264.332031 C 195.054688 264.128906 195.5625 263.972656 196.089844 263.867188 C 196.613281 263.765625 197.140625 263.710938 197.675781 263.710938 C 198.210938 263.710938 198.738281 263.765625 199.261719 263.867188 C 199.785156 263.972656 200.292969 264.128906 200.789062 264.332031 C 201.28125 264.535156 201.75 264.789062 202.195312 265.085938 C 202.640625 265.382812 203.050781 265.71875 203.425781 266.097656 C 203.804688 266.476562 204.140625 266.886719 204.4375 267.332031 C 204.734375 267.777344 204.988281 268.246094 205.191406 268.738281 C 205.394531 269.234375 205.550781 269.742188 205.652344 270.265625 C 205.757812 270.789062 205.808594 271.320312 205.808594 271.855469 Z M 205.808594 271.855469 " fill-opacity="1" fill-rule="nonzero"/><g clip-path="url(#658f5972b8)"><path fill="#3f3d56" d="M 247.890625 290.203125 L 136.128906 290.203125 C 135.804688 290.203125 135.484375 290.171875 135.167969 290.109375 C 134.851562 290.042969 134.542969 289.949219 134.246094 289.828125 C 133.949219 289.703125 133.664062 289.550781 133.394531 289.371094 C 133.128906 289.191406 132.878906 288.988281 132.648438 288.757812 C 132.421875 288.53125 132.21875 288.28125 132.039062 288.011719 C 131.859375 287.742188 131.707031 287.460938 131.582031 287.160156 C 131.460938 286.863281 131.367188 286.554688 131.300781 286.238281 C 131.238281 285.921875 131.207031 285.601562 131.207031 285.277344 L 131.207031 217.410156 C 131.207031 217.085938 131.238281 216.765625 131.300781 216.449219 C 131.367188 216.132812 131.460938 215.824219 131.582031 215.527344 C 131.707031 215.226562 131.859375 214.941406 132.039062 214.675781 C 132.21875 214.40625 132.421875 214.15625 132.648438 213.929688 C 132.878906 213.699219 133.128906 213.496094 133.394531 213.316406 C 133.664062 213.136719 133.949219 212.984375 134.246094 212.859375 C 134.542969 212.734375 134.851562 212.640625 135.167969 212.578125 C 135.484375 212.515625 135.804688 212.484375 136.128906 212.484375 L 247.890625 212.484375 C 248.210938 212.484375 248.53125 212.515625 248.847656 212.578125 C 249.167969 212.640625 249.472656 212.734375 249.773438 212.859375 C 250.070312 212.984375 250.355469 213.136719 250.621094 213.316406 C 250.890625 213.496094 251.140625 213.699219 251.367188 213.929688 C 251.597656 214.15625 251.800781 214.40625 251.980469 214.675781 C 252.160156 214.941406 252.3125 215.226562 252.433594 215.527344 C 252.558594 215.824219 252.652344 216.132812 252.714844 216.449219 C 252.777344 216.765625 252.8125 217.085938 252.8125 217.410156 L 252.8125 285.277344 C 252.8125 285.601562 252.777344 285.921875 252.714844 286.238281 C 252.652344 286.554688 252.558594 286.863281 252.433594 287.160156 C 252.3125 287.460938 252.160156 287.742188 251.980469 288.011719 C 251.800781 288.28125 251.597656 288.53125 251.367188 288.757812 C 251.140625 288.988281 250.890625 289.191406 250.621094 289.371094 C 250.355469 289.550781 250.070312 289.703125 249.773438 289.828125 C 249.472656 289.949219 249.167969 290.042969 248.847656 290.109375 C 248.53125 290.171875 248.210938 290.203125 247.890625 290.203125 Z M 247.890625 290.203125 " fill-opacity="1" fill-rule="nonzero"/></g><path fill="#ffffff" d="M 194.996094 251.34375 C 194.996094 251.777344 194.910156 252.191406 194.746094 252.589844 C 194.582031 252.988281 194.347656 253.34375 194.039062 253.648438 C 193.734375 253.953125 193.382812 254.191406 192.984375 254.355469 C 192.585938 254.519531 192.167969 254.601562 191.738281 254.601562 C 191.304688 254.601562 190.890625 254.519531 190.492188 254.355469 C 190.09375 254.191406 189.742188 253.953125 189.433594 253.648438 C 189.128906 253.34375 188.894531 252.988281 188.730469 252.589844 C 188.5625 252.191406 188.480469 251.777344 188.480469 251.34375 C 188.480469 250.910156 188.5625 250.496094 188.730469 250.097656 C 188.894531 249.695312 189.128906 249.34375 189.433594 249.039062 C 189.742188 248.734375 190.09375 248.496094 190.492188 248.332031 C 190.890625 248.167969 191.304688 248.082031 191.738281 248.082031 C 192.167969 248.082031 192.585938 248.167969 192.984375 248.332031 C 193.382812 248.496094 193.734375 248.734375 194.039062 249.039062 C 194.347656 249.34375 194.582031 249.695312 194.746094 250.097656 C 194.910156 250.496094 194.996094 250.910156 194.996094 251.34375 Z M 194.996094 251.34375 " fill-opacity="1" fill-rule="nonzero"/><g clip-path="url(#b630422e83)"><path fill="#f1f1f1" d="M 374.882812 276.515625 L 0.128906 276.515625 L 0.128906 288.042969 L 22.296875 288.042969 L 22.296875 290.722656 L 352.722656 290.722656 L 352.722656 288.042969 L 374.882812 288.042969 Z M 374.882812 276.515625 " fill-opacity="1" fill-rule="nonzero"/></g><path fill="#20bf00" d="M 160.871094 138.113281 C 156.03125 138.113281 152.105469 133.867188 152.105469 128.625 L 152.105469 123.878906 C 152.105469 118.636719 156.03125 114.386719 160.871094 114.386719 Z M 160.871094 138.113281 " fill-opacity="1" fill-rule="nonzero"/><path fill="#20bf00" d="M 216.84375 114.386719 C 221.683594 114.386719 225.609375 118.636719 225.609375 123.878906 L 225.609375 128.625 C 225.609375 133.867188 221.683594 138.113281 216.84375 138.113281 Z M 216.84375 114.386719 " fill-opacity="1" fill-rule="nonzero"/><path fill="#20bf00" d="M 221.4375 124.625 L 220.046875 124.625 C 220.046875 105.527344 205.691406 89.992188 188.046875 89.992188 C 170.402344 89.992188 156.046875 105.527344 156.046875 124.625 L 154.65625 124.625 C 154.65625 104.699219 169.632812 88.484375 188.046875 88.484375 C 206.457031 88.484375 221.4375 104.699219 221.4375 124.625 Z M 221.4375 124.625 " fill-opacity="1" fill-rule="nonzero"/></svg>