<svg xmlns="http://www.w3.org/2000/svg" xmlns:xlink="http://www.w3.org/1999/xlink" width="500" zoomAndPan="magnify" viewBox="0 0 375 374.999991" height="500" preserveAspectRatio="xMidYMid meet" version="1.0"><defs><clipPath id="462b6548de"><path d="M 0 68.652344 L 263 68.652344 L 263 80 L 0 80 Z M 0 68.652344 " clip-rule="nonzero"/></clipPath><clipPath id="8b440d38de"><path d="M 87 305 L 375 305 L 375 306.402344 L 87 306.402344 Z M 87 305 " clip-rule="nonzero"/></clipPath></defs><path fill="#f0f0f0" d="M 359.597656 298.910156 C 357.910156 301.183594 355.871094 303.078125 353.480469 304.59375 C 352.976562 304.914062 352.460938 305.214844 351.933594 305.492188 L 339.542969 305.492188 C 339.691406 305.195312 339.835938 304.894531 339.976562 304.59375 C 340.929688 302.578125 341.722656 300.503906 342.355469 298.363281 C 342.984375 296.226562 343.445312 294.050781 343.738281 291.839844 C 344.03125 289.632812 344.152344 287.410156 344.097656 285.183594 C 344.042969 282.953125 343.820312 280.742188 343.421875 278.550781 C 343.023438 276.355469 342.457031 274.207031 341.722656 272.101562 C 340.992188 269.996094 340.101562 267.960938 339.050781 265.992188 C 338 264.027344 336.804688 262.152344 335.460938 260.371094 C 334.121094 258.59375 332.648438 256.925781 331.046875 255.375 C 338.535156 257.691406 345.457031 262.199219 349.984375 268.597656 C 352.207031 271.742188 353.742188 275.191406 354.589844 278.949219 C 354.960938 275.230469 354.855469 271.523438 354.273438 267.832031 C 353.6875 264.136719 352.640625 260.582031 351.136719 257.160156 C 357.214844 262.105469 361.949219 268.878906 363.753906 276.503906 C 365.558594 284.136719 364.25 292.601562 359.597656 298.910156 Z M 359.597656 298.910156 " fill-opacity="1" fill-rule="nonzero"/><path fill="#e6e6e6" d="M 0.113281 75.871094 L 262.617188 75.871094 L 262.617188 200.464844 L 0.113281 200.464844 Z M 0.113281 75.871094 " fill-opacity="1" fill-rule="nonzero"/><path fill="#ffffff" d="M 7.617188 86.554688 L 255.109375 86.554688 L 255.109375 190.507812 L 7.617188 190.507812 Z M 7.617188 86.554688 " fill-opacity="1" fill-rule="nonzero"/><g clip-path="url(#462b6548de)"><path fill="#06e18a" d="M 0 68.671875 L 262.503906 68.671875 L 262.503906 79.824219 L 0 79.824219 Z M 0 68.671875 " fill-opacity="1" fill-rule="nonzero"/></g><path fill="#ffffff" d="M 10.355469 73.832031 C 10.355469 74.105469 10.300781 74.367188 10.195312 74.621094 C 10.089844 74.875 9.941406 75.097656 9.75 75.292969 C 9.554688 75.484375 9.332031 75.636719 9.078125 75.742188 C 8.824219 75.84375 8.5625 75.898438 8.285156 75.898438 C 8.011719 75.898438 7.75 75.84375 7.496094 75.742188 C 7.242188 75.636719 7.019531 75.484375 6.824219 75.292969 C 6.632812 75.097656 6.480469 74.875 6.378906 74.621094 C 6.273438 74.367188 6.21875 74.105469 6.21875 73.832031 C 6.21875 73.554688 6.273438 73.292969 6.378906 73.039062 C 6.480469 72.785156 6.632812 72.5625 6.824219 72.367188 C 7.019531 72.175781 7.242188 72.023438 7.496094 71.921875 C 7.75 71.816406 8.011719 71.761719 8.285156 71.761719 C 8.5625 71.761719 8.824219 71.816406 9.078125 71.921875 C 9.332031 72.023438 9.554688 72.175781 9.75 72.367188 C 9.941406 72.5625 10.089844 72.785156 10.195312 73.039062 C 10.300781 73.292969 10.355469 73.554688 10.355469 73.832031 Z M 10.355469 73.832031 " fill-opacity="1" fill-rule="nonzero"/><path fill="#ffffff" d="M 18.199219 73.832031 C 18.199219 74.105469 18.148438 74.367188 18.042969 74.621094 C 17.9375 74.875 17.789062 75.097656 17.59375 75.292969 C 17.402344 75.484375 17.175781 75.636719 16.921875 75.742188 C 16.671875 75.84375 16.40625 75.898438 16.132812 75.898438 C 15.859375 75.898438 15.59375 75.84375 15.339844 75.742188 C 15.089844 75.636719 14.863281 75.484375 14.671875 75.292969 C 14.476562 75.097656 14.328125 74.875 14.222656 74.621094 C 14.117188 74.367188 14.066406 74.105469 14.066406 73.832031 C 14.066406 73.554688 14.117188 73.292969 14.222656 73.039062 C 14.328125 72.785156 14.476562 72.5625 14.671875 72.367188 C 14.863281 72.175781 15.089844 72.023438 15.339844 71.921875 C 15.59375 71.816406 15.859375 71.761719 16.132812 71.761719 C 16.40625 71.761719 16.671875 71.816406 16.921875 71.921875 C 17.175781 72.023438 17.402344 72.175781 17.59375 72.367188 C 17.789062 72.5625 17.9375 72.785156 18.042969 73.039062 C 18.148438 73.292969 18.199219 73.554688 18.199219 73.832031 Z M 18.199219 73.832031 " fill-opacity="1" fill-rule="nonzero"/><path fill="#ffffff" d="M 26.046875 73.832031 C 26.046875 74.105469 25.992188 74.367188 25.886719 74.621094 C 25.785156 74.875 25.632812 75.097656 25.441406 75.292969 C 25.246094 75.484375 25.023438 75.636719 24.769531 75.742188 C 24.515625 75.84375 24.253906 75.898438 23.980469 75.898438 C 23.703125 75.898438 23.441406 75.84375 23.1875 75.742188 C 22.933594 75.636719 22.710938 75.484375 22.515625 75.292969 C 22.324219 75.097656 22.175781 74.875 22.070312 74.621094 C 21.964844 74.367188 21.910156 74.105469 21.910156 73.832031 C 21.910156 73.554688 21.964844 73.292969 22.070312 73.039062 C 22.175781 72.785156 22.324219 72.5625 22.515625 72.367188 C 22.710938 72.175781 22.933594 72.023438 23.1875 71.921875 C 23.441406 71.816406 23.703125 71.761719 23.980469 71.761719 C 24.253906 71.761719 24.515625 71.816406 24.769531 71.921875 C 25.023438 72.023438 25.246094 72.175781 25.441406 72.367188 C 25.632812 72.5625 25.785156 72.785156 25.886719 73.039062 C 25.992188 73.292969 26.046875 73.554688 26.046875 73.832031 Z M 26.046875 73.832031 " fill-opacity="1" fill-rule="nonzero"/><path fill="#e4e4e4" d="M 194.644531 108.261719 L 68.289062 108.261719 C 67.828125 108.261719 67.386719 108.351562 66.960938 108.527344 C 66.535156 108.703125 66.160156 108.957031 65.832031 109.28125 C 65.507812 109.605469 65.253906 109.984375 65.078125 110.410156 C 64.902344 110.835938 64.8125 111.277344 64.8125 111.738281 C 64.8125 112.199219 64.902344 112.644531 65.078125 113.070312 C 65.253906 113.496094 65.507812 113.871094 65.832031 114.199219 C 66.160156 114.523438 66.535156 114.773438 66.960938 114.953125 C 67.386719 115.128906 67.828125 115.214844 68.289062 115.214844 L 194.644531 115.214844 C 195.105469 115.214844 195.546875 115.128906 195.972656 114.953125 C 196.398438 114.773438 196.777344 114.523438 197.101562 114.199219 C 197.425781 113.871094 197.679688 113.496094 197.855469 113.070312 C 198.03125 112.644531 198.121094 112.199219 198.121094 111.738281 C 198.121094 111.277344 198.03125 110.835938 197.855469 110.410156 C 197.679688 109.984375 197.425781 109.605469 197.101562 109.28125 C 196.777344 108.957031 196.398438 108.703125 195.972656 108.527344 C 195.546875 108.351562 195.105469 108.261719 194.644531 108.261719 Z M 194.644531 108.261719 " fill-opacity="1" fill-rule="nonzero"/><path fill="#e4e4e4" d="M 194.644531 135.054688 L 68.289062 135.054688 C 67.828125 135.054688 67.386719 135.140625 66.960938 135.316406 C 66.535156 135.496094 66.160156 135.746094 65.832031 136.070312 C 65.507812 136.398438 65.253906 136.773438 65.078125 137.199219 C 64.902344 137.625 64.8125 138.070312 64.8125 138.53125 C 64.8125 138.992188 64.902344 139.433594 65.078125 139.859375 C 65.253906 140.285156 65.507812 140.664062 65.832031 140.988281 C 66.160156 141.3125 66.535156 141.566406 66.960938 141.742188 C 67.386719 141.917969 67.828125 142.007812 68.289062 142.007812 L 194.644531 142.007812 C 195.105469 142.007812 195.546875 141.917969 195.972656 141.742188 C 196.398438 141.566406 196.777344 141.3125 197.101562 140.988281 C 197.425781 140.664062 197.679688 140.285156 197.855469 139.859375 C 198.03125 139.433594 198.121094 138.992188 198.121094 138.53125 C 198.121094 138.070312 198.03125 137.625 197.855469 137.199219 C 197.679688 136.773438 197.425781 136.398438 197.101562 136.070312 C 196.777344 135.746094 196.398438 135.496094 195.972656 135.316406 C 195.546875 135.140625 195.105469 135.054688 194.644531 135.054688 Z M 194.644531 135.054688 " fill-opacity="1" fill-rule="nonzero"/><path fill="#e4e4e4" d="M 194.644531 161.84375 L 68.289062 161.84375 C 67.828125 161.84375 67.386719 161.933594 66.960938 162.109375 C 66.535156 162.285156 66.160156 162.535156 65.832031 162.863281 C 65.507812 163.1875 65.253906 163.5625 65.078125 163.988281 C 64.902344 164.414062 64.8125 164.859375 64.8125 165.320312 C 64.8125 165.78125 64.902344 166.226562 65.078125 166.652344 C 65.253906 167.078125 65.507812 167.453125 65.832031 167.777344 C 66.160156 168.105469 66.535156 168.355469 66.960938 168.53125 C 67.386719 168.707031 67.828125 168.796875 68.289062 168.796875 L 194.644531 168.796875 C 195.105469 168.796875 195.546875 168.707031 195.972656 168.53125 C 196.398438 168.355469 196.777344 168.105469 197.101562 167.777344 C 197.425781 167.453125 197.679688 167.078125 197.855469 166.652344 C 198.03125 166.226562 198.121094 165.78125 198.121094 165.320312 C 198.121094 164.859375 198.03125 164.414062 197.855469 163.988281 C 197.679688 163.5625 197.425781 163.1875 197.101562 162.863281 C 196.777344 162.535156 196.398438 162.285156 195.972656 162.109375 C 195.546875 161.933594 195.105469 161.84375 194.644531 161.84375 Z M 194.644531 161.84375 " fill-opacity="1" fill-rule="nonzero"/><path fill="#06e18a" d="M 133.921875 115.421875 L 68.410156 115.421875 C 67.9375 115.425781 67.476562 115.347656 67.035156 115.179688 C 66.589844 115.011719 66.191406 114.769531 65.839844 114.449219 C 65.488281 114.132812 65.207031 113.761719 64.996094 113.335938 C 64.785156 112.910156 64.660156 112.460938 64.617188 111.988281 C 64.542969 110.921875 64.871094 110.003906 65.601562 109.226562 C 66.332031 108.449219 67.226562 108.058594 68.289062 108.058594 L 126.765625 108.058594 C 127.234375 108.058594 127.699219 108.105469 128.160156 108.199219 C 128.621094 108.289062 129.066406 108.425781 129.5 108.605469 C 129.9375 108.785156 130.347656 109.007812 130.738281 109.265625 C 131.128906 109.527344 131.488281 109.824219 131.824219 110.15625 C 132.15625 110.488281 132.449219 110.851562 132.710938 111.242188 C 132.972656 111.632812 133.195312 112.042969 133.375 112.476562 C 133.554688 112.914062 133.691406 113.359375 133.78125 113.820312 C 133.875 114.28125 133.921875 114.746094 133.921875 115.214844 Z M 133.921875 115.421875 " fill-opacity="1" fill-rule="nonzero"/><path fill="#06e18a" d="M 167.859375 142.210938 L 68.410156 142.210938 C 67.9375 142.21875 67.476562 142.136719 67.035156 141.96875 C 66.589844 141.804688 66.191406 141.558594 65.839844 141.242188 C 65.488281 140.921875 65.207031 140.550781 64.996094 140.125 C 64.785156 139.699219 64.660156 139.25 64.617188 138.777344 C 64.542969 137.714844 64.871094 136.792969 65.601562 136.015625 C 66.332031 135.238281 67.226562 134.851562 68.289062 134.847656 L 160.703125 134.847656 C 161.175781 134.847656 161.640625 134.894531 162.101562 134.988281 C 162.558594 135.078125 163.007812 135.214844 163.441406 135.394531 C 163.875 135.574219 164.289062 135.796875 164.679688 136.058594 C 165.070312 136.320312 165.429688 136.617188 165.761719 136.949219 C 166.09375 137.28125 166.390625 137.640625 166.652344 138.03125 C 166.914062 138.421875 167.132812 138.835938 167.3125 139.269531 C 167.492188 139.703125 167.628906 140.148438 167.722656 140.609375 C 167.8125 141.070312 167.859375 141.535156 167.859375 142.007812 Z M 167.859375 142.210938 " fill-opacity="1" fill-rule="nonzero"/><path fill="#06e18a" d="M 153.957031 169 L 68.410156 169 C 67.9375 169.007812 67.476562 168.929688 67.035156 168.761719 C 66.589844 168.59375 66.191406 168.351562 65.839844 168.03125 C 65.488281 167.714844 65.207031 167.339844 64.996094 166.917969 C 64.785156 166.492188 64.660156 166.042969 64.617188 165.570312 C 64.542969 164.503906 64.871094 163.582031 65.601562 162.804688 C 66.332031 162.03125 67.226562 161.640625 68.289062 161.640625 L 146.800781 161.640625 C 147.269531 161.640625 147.734375 161.6875 148.195312 161.777344 C 148.65625 161.871094 149.105469 162.007812 149.539062 162.1875 C 149.972656 162.367188 150.382812 162.585938 150.773438 162.847656 C 151.164062 163.109375 151.527344 163.40625 151.859375 163.738281 C 152.191406 164.070312 152.488281 164.429688 152.75 164.820312 C 153.011719 165.210938 153.230469 165.625 153.410156 166.058594 C 153.589844 166.492188 153.726562 166.941406 153.820312 167.402344 C 153.910156 167.863281 153.957031 168.328125 153.957031 168.796875 Z M 153.957031 169 " fill-opacity="1" fill-rule="nonzero"/><path fill="#ffb6b6" d="M 260.042969 170.046875 C 260.183594 170.316406 260.351562 170.5625 260.546875 170.792969 C 260.738281 171.023438 260.957031 171.230469 261.195312 171.414062 C 261.433594 171.597656 261.691406 171.75 261.964844 171.878906 C 262.238281 172.003906 262.523438 172.101562 262.816406 172.164062 C 263.109375 172.226562 263.410156 172.261719 263.710938 172.257812 C 264.011719 172.257812 264.308594 172.222656 264.601562 172.15625 C 264.898438 172.089844 265.179688 171.992188 265.453125 171.867188 C 265.726562 171.738281 265.980469 171.582031 266.21875 171.394531 L 278.484375 179.402344 L 278.449219 171.789062 L 266.804688 165.355469 C 266.46875 164.972656 266.074219 164.667969 265.625 164.429688 C 265.175781 164.195312 264.699219 164.046875 264.199219 163.988281 C 263.695312 163.925781 263.195312 163.957031 262.703125 164.078125 C 262.210938 164.203125 261.757812 164.40625 261.339844 164.695312 C 260.921875 164.988281 260.570312 165.339844 260.285156 165.757812 C 260 166.175781 259.796875 166.632812 259.675781 167.125 C 259.554688 167.621094 259.527344 168.117188 259.59375 168.621094 C 259.65625 169.125 259.804688 169.601562 260.042969 170.046875 Z M 260.042969 170.046875 " fill-opacity="1" fill-rule="nonzero"/><path fill="#ffb6b6" d="M 321.601562 300.199219 L 316.339844 300.199219 L 313.832031 279.898438 L 321.601562 279.898438 Z M 321.601562 300.199219 " fill-opacity="1" fill-rule="nonzero"/><path fill="#2f2e41" d="M 322.941406 305.304688 L 305.972656 305.304688 L 305.972656 305.089844 C 305.972656 304.65625 306.015625 304.226562 306.101562 303.800781 C 306.183594 303.375 306.3125 302.960938 306.476562 302.558594 C 306.644531 302.160156 306.847656 301.777344 307.085938 301.417969 C 307.328125 301.058594 307.601562 300.722656 307.910156 300.417969 C 308.214844 300.109375 308.550781 299.835938 308.910156 299.59375 C 309.269531 299.355469 309.652344 299.152344 310.050781 298.984375 C 310.453125 298.820312 310.863281 298.695312 311.289062 298.609375 C 311.714844 298.523438 312.144531 298.480469 312.578125 298.480469 L 322.941406 298.484375 Z M 322.941406 305.304688 " fill-opacity="1" fill-rule="nonzero"/><path fill="#ffb6b6" d="M 295.5625 300.199219 L 290.300781 300.199219 L 287.796875 279.898438 L 295.566406 279.898438 Z M 295.5625 300.199219 " fill-opacity="1" fill-rule="nonzero"/><path fill="#2f2e41" d="M 296.90625 305.304688 L 279.9375 305.304688 L 279.9375 305.089844 C 279.9375 304.65625 279.980469 304.226562 280.066406 303.800781 C 280.148438 303.375 280.273438 302.960938 280.441406 302.558594 C 280.605469 302.160156 280.808594 301.777344 281.050781 301.417969 C 281.292969 301.058594 281.566406 300.722656 281.871094 300.417969 C 282.179688 300.109375 282.511719 299.835938 282.875 299.59375 C 283.234375 299.355469 283.613281 299.152344 284.015625 298.984375 C 284.414062 298.820312 284.828125 298.695312 285.253906 298.609375 C 285.679688 298.523438 286.109375 298.480469 286.542969 298.480469 L 296.90625 298.484375 Z M 296.90625 305.304688 " fill-opacity="1" fill-rule="nonzero"/><path fill="#2f2e41" d="M 289.492188 196.59375 L 284.246094 248.933594 L 286.867188 294.113281 L 297.007812 294.113281 L 299.054688 251.613281 L 307.027344 228.375 L 311.667969 264.1875 L 311.667969 293.34375 L 323.203125 293.878906 L 327.03125 222.488281 C 327.03125 222.488281 328.328125 202.519531 325.734375 200.074219 C 323.140625 197.628906 289.492188 196.59375 289.492188 196.59375 Z M 289.492188 196.59375 " fill-opacity="1" fill-rule="nonzero"/><path fill="#3f3d56" d="M 334.203125 149.363281 L 323.605469 145.375 L 321.738281 141.589844 L 308.414062 141.785156 L 305.394531 144.816406 L 295.019531 148.21875 L 288.421875 198.773438 C 288.421875 198.773438 308.730469 213.289062 326.753906 203.257812 Z M 334.203125 149.363281 " fill-opacity="1" fill-rule="nonzero"/><path fill="#3f3d56" d="M 269.335938 174.933594 L 286.773438 185.191406 L 301.304688 165.746094 L 301.304688 153.550781 C 301.304688 152.398438 300.988281 151.34375 300.347656 150.386719 C 300.058594 149.953125 299.71875 149.566406 299.324219 149.226562 C 298.929688 148.886719 298.5 148.605469 298.027344 148.382812 C 297.558594 148.160156 297.066406 148.003906 296.550781 147.917969 C 296.039062 147.832031 295.523438 147.8125 295.007812 147.867188 C 294.488281 147.917969 293.988281 148.039062 293.503906 148.230469 C 293.019531 148.421875 292.570312 148.671875 292.152344 148.984375 C 291.738281 149.296875 291.371094 149.660156 291.054688 150.074219 C 290.738281 150.488281 290.484375 150.933594 290.289062 151.417969 L 282.742188 170.171875 L 272.039062 167.011719 Z M 269.335938 174.933594 " fill-opacity="1" fill-rule="nonzero"/><path fill="#ffb6b6" d="M 320.011719 202.285156 C 320.066406 201.988281 320.148438 201.699219 320.265625 201.421875 C 320.382812 201.144531 320.527344 200.882812 320.699219 200.636719 C 320.875 200.390625 321.070312 200.164062 321.292969 199.960938 C 321.515625 199.757812 321.757812 199.582031 322.019531 199.433594 C 322.28125 199.285156 322.554688 199.164062 322.84375 199.074219 C 323.132812 198.984375 323.425781 198.925781 323.726562 198.902344 C 324.027344 198.878906 324.324219 198.886719 324.625 198.925781 C 324.921875 198.964844 325.214844 199.039062 325.496094 199.144531 L 334.792969 187.820312 L 337.042969 195.09375 L 327.871094 204.730469 C 327.664062 205.191406 327.382812 205.605469 327.023438 205.964844 C 326.664062 206.324219 326.253906 206.609375 325.792969 206.816406 C 325.332031 207.027344 324.847656 207.148438 324.339844 207.175781 C 323.835938 207.207031 323.339844 207.148438 322.855469 207 C 322.371094 206.847656 321.929688 206.617188 321.53125 206.304688 C 321.128906 205.988281 320.800781 205.617188 320.539062 205.183594 C 320.277344 204.746094 320.097656 204.28125 320.007812 203.78125 C 319.917969 203.28125 319.917969 202.785156 320.011719 202.285156 Z M 320.011719 202.285156 " fill-opacity="1" fill-rule="nonzero"/><path fill="#3f3d56" d="M 333.875 200.5 L 328.003906 194.625 L 337.703125 177.238281 L 323.632812 161.464844 L 324.445312 155.101562 C 324.636719 153.609375 325.203125 152.273438 326.140625 151.097656 C 326.339844 150.847656 326.554688 150.609375 326.78125 150.386719 C 327.011719 150.160156 327.25 149.953125 327.503906 149.757812 C 327.757812 149.558594 328.023438 149.378906 328.296875 149.214844 C 328.570312 149.050781 328.855469 148.90625 329.144531 148.773438 C 329.4375 148.644531 329.738281 148.53125 330.042969 148.4375 C 330.347656 148.34375 330.65625 148.265625 330.972656 148.207031 C 331.289062 148.152344 331.605469 148.113281 331.921875 148.09375 C 332.242188 148.074219 332.5625 148.070312 332.882812 148.089844 C 333.199219 148.109375 333.519531 148.144531 333.832031 148.203125 C 334.148438 148.257812 334.457031 148.332031 334.765625 148.425781 C 335.070312 148.519531 335.371094 148.628906 335.660156 148.757812 C 335.953125 148.886719 336.238281 149.03125 336.515625 149.195312 C 336.789062 149.359375 337.054688 149.539062 337.308594 149.730469 C 337.5625 149.925781 337.804688 150.132812 338.03125 150.359375 C 338.261719 150.582031 338.476562 150.816406 338.679688 151.066406 C 338.878906 151.316406 339.066406 151.574219 339.234375 151.847656 L 350.234375 176.3125 L 350.179688 176.394531 Z M 333.875 200.5 " fill-opacity="1" fill-rule="nonzero"/><path fill="#ffb6b6" d="M 324.832031 128.457031 C 324.730469 129.191406 324.558594 129.910156 324.316406 130.609375 C 324.074219 131.308594 323.765625 131.980469 323.394531 132.621094 C 323.019531 133.257812 322.585938 133.855469 322.09375 134.410156 C 321.601562 134.964844 321.0625 135.46875 320.472656 135.914062 C 319.882812 136.363281 319.253906 136.75 318.585938 137.074219 C 317.921875 137.398438 317.230469 137.65625 316.511719 137.84375 C 315.796875 138.03125 315.066406 138.148438 314.328125 138.195312 C 313.589844 138.238281 312.851562 138.210938 312.117188 138.113281 C 311.382812 138.011719 310.664062 137.839844 309.964844 137.601562 C 309.265625 137.359375 308.59375 137.050781 307.953125 136.679688 C 307.3125 136.304688 306.714844 135.875 306.160156 135.382812 C 305.605469 134.890625 305.101562 134.351562 304.652344 133.761719 C 304.203125 133.171875 303.816406 132.542969 303.492188 131.878906 C 303.164062 131.210938 302.910156 130.519531 302.71875 129.804688 C 302.53125 129.089844 302.410156 128.359375 302.363281 127.621094 C 302.320312 126.878906 302.34375 126.144531 302.445312 125.410156 L 302.464844 125.25 C 302.582031 124.523438 302.765625 123.816406 303.019531 123.125 C 303.273438 122.4375 303.589844 121.78125 303.972656 121.152344 C 304.355469 120.523438 304.792969 119.941406 305.289062 119.398438 C 305.785156 118.859375 306.328125 118.371094 306.921875 117.933594 C 307.511719 117.5 308.140625 117.125 308.804688 116.8125 C 309.46875 116.496094 310.15625 116.25 310.867188 116.070312 C 311.578125 115.894531 312.300781 115.785156 313.035156 115.746094 C 313.769531 115.707031 314.5 115.742188 315.226562 115.847656 C 315.953125 115.949219 316.660156 116.125 317.355469 116.367188 C 318.046875 116.609375 318.710938 116.917969 319.34375 117.289062 C 319.976562 117.660156 320.566406 118.089844 321.117188 118.578125 C 321.667969 119.0625 322.164062 119.601562 322.609375 120.183594 C 323.054688 120.769531 323.4375 121.390625 323.761719 122.050781 C 324.085938 122.707031 324.34375 123.390625 324.53125 124.101562 C 324.722656 124.8125 324.84375 125.53125 324.894531 126.265625 C 324.941406 126.996094 324.921875 127.726562 324.828125 128.457031 Z M 324.832031 128.457031 " fill-opacity="1" fill-rule="nonzero"/><path fill="#2f2e41" d="M 321.957031 134.277344 C 322.539062 133.097656 323.132812 131.832031 322.96875 130.527344 C 322.808594 129.226562 321.527344 127.980469 320.273438 128.367188 C 319.523438 128.597656 318.957031 129.339844 318.171875 129.378906 C 317.09375 129.429688 316.472656 128.195312 316.136719 127.167969 L 314.769531 122.980469 C 313.4375 124.019531 311.949219 124.722656 310.304688 125.09375 C 308.660156 125.46875 307.015625 125.472656 305.367188 125.105469 C 304.097656 124.816406 302.8125 124.25 302.066406 123.179688 C 301.320312 122.109375 301.328125 120.453125 302.347656 119.644531 C 302.851562 119.246094 303.515625 119.09375 303.996094 118.671875 C 304.300781 118.402344 304.496094 118.070312 304.582031 117.671875 C 304.664062 117.273438 304.621094 116.886719 304.453125 116.519531 C 304.28125 116.148438 304.019531 115.867188 303.664062 115.667969 C 303.304688 115.472656 302.925781 115.402344 302.523438 115.460938 L 305.96875 115.027344 L 304.941406 113.171875 C 305.765625 113.734375 306.667969 113.898438 307.636719 113.664062 C 308.566406 113.5 309.4375 113.117188 310.34375 112.863281 C 310.890625 112.722656 311.445312 112.628906 312.003906 112.578125 C 312.566406 112.527344 313.128906 112.523438 313.691406 112.566406 C 314.253906 112.609375 314.808594 112.695312 315.355469 112.828125 C 315.902344 112.957031 316.4375 113.132812 316.957031 113.351562 C 317.476562 113.570312 317.972656 113.828125 318.453125 114.128906 C 318.929688 114.425781 319.378906 114.761719 319.804688 115.132812 C 320.226562 115.507812 320.617188 115.910156 320.972656 116.347656 C 321.332031 116.78125 321.652344 117.242188 321.933594 117.730469 C 322.359375 117.589844 322.792969 117.511719 323.242188 117.503906 C 323.6875 117.496094 324.125 117.550781 324.554688 117.675781 C 324.984375 117.800781 325.386719 117.984375 325.757812 118.230469 C 326.132812 118.476562 326.460938 118.773438 326.746094 119.121094 C 327.667969 120.289062 327.917969 121.851562 327.953125 123.34375 C 328.019531 126.324219 327.398438 129.15625 326.085938 131.832031 C 325.710938 132.679688 325.1875 133.421875 324.515625 134.058594 C 324.179688 134.375 323.789062 134.605469 323.347656 134.75 C 322.90625 134.894531 322.457031 134.9375 321.996094 134.882812 " fill-opacity="1" fill-rule="nonzero"/><g clip-path="url(#8b440d38de)"><path fill="#cccccc" d="M 374.269531 306.378906 L 88.304688 306.378906 C 88.144531 306.382812 88 306.335938 87.871094 306.242188 C 87.742188 306.148438 87.65625 306.023438 87.613281 305.871094 C 87.585938 305.765625 87.582031 305.664062 87.601562 305.558594 C 87.625 305.453125 87.667969 305.359375 87.730469 305.273438 C 87.796875 305.191406 87.878906 305.125 87.972656 305.078125 C 88.070312 305.03125 88.171875 305.007812 88.277344 305.007812 L 374.210938 305.007812 C 374.378906 305 374.53125 305.046875 374.667969 305.148438 C 374.804688 305.25 374.894531 305.378906 374.9375 305.542969 C 374.960938 305.644531 374.960938 305.746094 374.9375 305.847656 C 374.914062 305.949219 374.867188 306.042969 374.804688 306.121094 C 374.738281 306.203125 374.660156 306.265625 374.566406 306.3125 C 374.472656 306.359375 374.371094 306.378906 374.269531 306.378906 Z M 374.269531 306.378906 " fill-opacity="1" fill-rule="nonzero"/></g></svg>